<?xml version="1.0" standalone="no"?>
<svg xmlns="http://www.w3.org/2000/svg" viewBox="0 0 108 76" width="108" height="76"><g fill="#f29b18" color="#f29b18" transform="translate(31.724 0) scale(0.8148149) "><svg width="54.0" height="54.0" x="0.0" y="0.0" viewBox="0 0 54 54"><path fill="currentColor" fill-rule="evenodd" d="M27 0c14.85 0 27 12.06 27 27 0 3.78-.9 7.74-2.52 11.61-2.79 6.21-7.83 9.09-11.61 9.27-1.62 0-3.06-.36-4.23-1.17-.63-.45-1.62-1.62-2.43-3.24-.27-.54-.81-.9-1.35-.72-.63.18-.9.81-.72 1.35.63 1.89 2.25 3.69 3.69 5.04.45.36.9 1.17-.18 1.53-3.06 1.08-7.65-1.08-7.74-1.08-1.62-.72-3.24 2.97-3.42 3.15-.63 1.08-1.17.63-1.44.45-11.16-7.56-9.09-20.7-7.92-25.74.45-1.62.99-3.6 1.53-4.32.36-.45.81-.81 1.35-.81 1.62 0 1.17 1.8 1.17 1.8l-.004.028a37.766 37.766 0 0 0-.266 3.032c-.27 3.96 1.62 7.38 3.87 1.35 3.06-8.55 8.46-15.66 10.8-18.27.63-.63 2.16-2.16 3.06-1.53.81.54-.45 2.25-.99 2.88-1.62 1.89-5.22 6.39-8.1 12.15-.36.72.18.72.54 0 3.15-6.21 7.74-11.79 9.72-13.95.45-.54 1.8-1.98 2.79-1.44s-.27 2.07-.72 2.61c-1.8 2.07-6.21 7.38-9.27 13.32-.18.54.36.72.81-.09 2.34-4.77 5.49-8.73 7.2-10.62.54-.72 1.89-1.89 2.79-1.35.9.54-.18 1.98-.81 2.7-1.35 1.62-3.87 4.77-6.03 8.64-.18.36.36.9.81.09 1.44-2.7 2.97-4.68 3.06-4.86 0 0 1.08-1.44 2.16-1.35.99.09.27 1.35-.45 2.34-.54.81-4.32 6.48-5.4 12.96-.18.99-1.08 4.95-6.21 4.95-.27 0-.9-.18-.99-.9-.27-1.71-.09-3.6.18-5.4.09-.27-.09-.45-.27-.54a.97.97 0 0 0-.63.27c-1.17 1.62-2.16 3.24-2.97 5.04-.18.36-.45 1.08-1.71.81-1.8-.36-3.96-1.17-5.31-2.25-.72-.54-1.62-.72-.99.54.54.99 2.16 3.24 5.13 6.03.9.81.81 1.62.72 2.07-.27 1.89-.36 3.87-.27 5.94 0 .09.09.18.09.27.18.36.45.63.72.54.09 0 .18-.09.27-.18.72-1.53 1.62-2.88 2.61-4.14.18-.36.72-.81 1.89-.09 1.35.9 2.79 1.62 4.23 2.25.18.09.45.09.54-.09.18-.09.09-.36 0-.54-.99-1.35-1.8-2.79-2.52-4.32-.36-.9-.09-1.53.18-1.8.99-.99 2.97-1.89 4.95-.99.63.27.99 1.08 1.08 1.35 1.35 2.79 2.25 3.33 2.97 3.69.63.27 1.44.36 2.25.36 3.15-.09 7.29-2.61 9.72-7.92 1.62-3.6 2.43-7.2 2.43-10.71C51.84 13.32 40.68 2.16 27 2.16S2.16 13.32 2.16 27c0 8.73 4.41 16.65 11.88 21.15.54.36.63.99.36 1.53-.18.36-.54.54-.9.54-.18 0-.36-.09-.54-.18C4.86 45.09 0 36.45 0 27 0 12.15 12.15 0 27 0zm17.46 19.71c.27 0 .54 1.53.63 3.6.09.81.81.99 1.17.99 1.98.09 3.42.36 3.42.63s-1.44.54-3.42.63c-.36 0-1.08.09-1.17.99-.09 2.07-.36 3.6-.63 3.6s-.54-1.53-.63-3.6c-.09-.81-.81-.99-1.17-.99-1.98-.09-3.42-.36-3.42-.63 0-.36 1.44-.54 3.42-.63.36 0 1.08-.09 1.17-.99.09-2.07.36-3.6.63-3.6zm-33.75-4.23c.27 0 .45 1.17.54 2.79 0 .72.63.81.9.81 1.62 0 2.7.18 2.7.45 0 .18-1.17.36-2.7.45-.27 0-.9.09-.9.81-.18 1.62-.27 2.79-.54 2.79s-.45-1.17-.54-2.79c0-.72-.63-.81-.9-.81-1.62 0-2.7-.18-2.7-.45 0-.18 1.17-.36 2.7-.45.27 0 .9-.09.9-.81.18-1.62.27-2.79.54-2.79zm15.75-8.19c.18 0 .27.99.36 2.25 0 .54.45.63.72.63 1.26 0 2.16.18 2.16.36s-.9.27-2.25.36c-.18 0-.72.09-.72.63-.09 1.35-.18 2.25-.36 2.25s-.27-.99-.36-2.25c0-.54-.45-.63-.63-.63-1.26 0-2.16-.18-2.16-.36s.9-.27 2.16-.36c.18 0 .72-.09.72-.63.09-1.35.18-2.25.36-2.25zM18 4.59c.18 0 .36.99.45 2.43.09.63.54.72.81.72 1.35.09 2.34.27 2.34.45s-.99.36-2.34.45c-.27.09-.81.18-.81.72-.09 1.44-.27 2.43-.45 2.43s-.36-.99-.45-2.43c-.09-.54-.54-.63-.81-.72-1.35-.09-2.34-.27-2.34-.45s.99-.36 2.34-.45c.27-.09.81-.18.81-.72.09-1.44.27-2.43.45-2.43z"></path></svg></g><path fill="#01427c" fill-rule="nonzero" d="M6.46 23.64L0.14 23.64L0.14 22.49L1.30 22.30Q1.68 22.22 1.84 21.97Q1.99 21.72 1.99 21.17L1.99 21.17L1.99 9.17Q1.99 8.26 1.82 7.97Q1.66 7.68 1.10 7.61L1.10 7.61L0 7.46L0.19 6.29L3.48 6.05L3.82 6.19L3.96 8.35L4.03 8.35Q4.87 7.08 5.93 6.48Q6.98 5.88 8.38 5.88L8.38 5.88Q10.56 5.88 11.80 7.48Q13.03 9.07 13.03 11.88L13.03 11.88Q13.03 14.04 12.37 15.58Q11.71 17.11 10.45 17.92Q9.19 18.72 7.42 18.72L7.42 18.72Q6.53 18.72 5.65 18.50Q4.78 18.29 4.22 17.93L4.22 17.93L4.22 21.10Q4.22 21.67 4.39 21.94Q4.56 22.20 4.99 22.27L4.99 22.27L6.46 22.51L6.46 23.64ZM7.25 17.14L7.25 17.14Q8.83 17.14 9.72 15.84Q10.61 14.54 10.61 12.22L10.61 12.22Q10.61 9.91 9.85 8.75Q9.10 7.58 7.61 7.58L7.61 7.58Q6.02 7.58 5.12 8.53Q4.22 9.48 4.22 11.11L4.22 11.11L4.22 16.10Q4.70 16.56 5.56 16.85Q6.41 17.14 7.25 17.14ZM21.34 18.38L15.46 18.38L15.46 17.26L16.56 17.04Q16.97 16.97 17.10 16.73Q17.23 16.49 17.23 15.89L17.23 15.89L17.23 2.93Q17.23 2.09 17.05 1.84Q16.87 1.58 16.20 1.49L16.20 1.49L15.14 1.32L15.29 0.12L19.20 0L19.46 0.26L19.46 7.90L19.46 8.11Q19.85 7.44 20.47 6.94Q21.10 6.43 21.88 6.16Q22.66 5.88 23.47 5.88L23.47 5.88Q24.74 5.88 25.62 6.35Q26.50 6.82 26.95 7.73Q27.41 8.64 27.41 9.98L27.41 9.98L27.41 16.08Q27.41 16.61 27.55 16.79Q27.70 16.97 28.15 17.06L28.15 17.06L29.28 17.26L29.28 18.38L23.40 18.38L23.40 17.28L24.46 17.09Q24.91 16.99 25.04 16.80Q25.18 16.61 25.18 16.08L25.18 16.08L25.18 10.68Q25.18 9.55 24.95 8.88Q24.72 8.21 24.19 7.91Q23.66 7.61 22.78 7.61L22.78 7.61Q21.26 7.61 20.36 8.52Q19.46 9.43 19.46 10.94L19.46 10.94L19.46 15.98Q19.46 16.54 19.58 16.74Q19.70 16.94 20.06 17.02L20.06 17.02L21.34 17.28L21.34 18.38ZM34.63 18.72L34.63 18.72Q33.12 18.72 32.20 17.83Q31.27 16.94 31.27 15.48L31.27 15.48Q31.27 14.16 31.93 13.34Q32.59 12.53 34.10 12.11Q35.62 11.69 38.16 11.57L38.16 11.57L38.16 9.94Q38.16 8.45 37.54 7.78Q36.91 7.10 35.57 7.10L35.57 7.10Q34.92 7.10 34.28 7.31Q33.65 7.51 33.36 7.82L33.36 7.82Q33.98 8.86 33.98 9.17L33.98 9.17Q33.98 9.62 33.61 9.94Q33.24 10.25 32.69 10.25L32.69 10.25Q32.04 10.25 31.68 9.92Q31.32 9.60 31.32 9L31.32 9Q31.32 8.16 31.96 7.45Q32.59 6.74 33.64 6.31Q34.68 5.88 35.90 5.88L35.90 5.88Q38.18 5.88 39.29 6.94Q40.39 7.99 40.39 10.20L40.39 10.20L40.39 15.98Q40.39 17.04 41.47 17.04L41.47 17.04Q41.74 17.04 42 16.99Q42.26 16.94 42.60 16.85L42.60 16.85L42.84 17.76Q42.41 18.17 41.78 18.44Q41.16 18.72 40.63 18.72L40.63 18.72Q39.60 18.72 39.04 18.18Q38.47 17.64 38.35 16.58L38.35 16.58Q37.01 18.72 34.63 18.72ZM35.54 17.06L35.54 17.06Q36.67 17.06 37.42 16.33Q38.16 15.60 38.16 14.52L38.16 14.52L38.16 12.82Q35.83 12.82 34.72 13.40Q33.60 13.99 33.60 15.22L33.60 15.22Q33.60 16.08 34.13 16.57Q34.66 17.06 35.54 17.06ZM50.95 18.38L44.28 18.38L44.28 17.23L45.43 17.02Q45.82 16.94 45.94 16.72Q46.06 16.49 46.06 15.86L46.06 15.86L46.06 9.14Q46.06 8.28 45.91 8.02Q45.77 7.75 45.24 7.66L45.24 7.66L44.06 7.49L44.23 6.31L47.47 6.05L47.76 6.22L48.02 8.38L48.10 8.38Q49.54 5.88 51.67 5.88L51.67 5.88Q52.80 5.88 53.47 6.50Q54.14 7.13 54.14 8.18L54.14 8.18Q54.14 9.12 53.74 9.60Q53.33 10.08 52.54 10.08L52.54 10.08Q51.86 10.08 51.49 9.80Q51.12 9.53 51.12 9.02L51.12 9.02Q51.12 8.76 51.23 8.42Q51.34 8.09 51.58 7.63L51.58 7.63Q51.05 7.37 50.47 7.55Q49.90 7.73 49.40 8.24Q48.91 8.76 48.60 9.49Q48.29 10.22 48.29 11.04L48.29 11.04L48.29 15.91Q48.29 16.51 48.40 16.69Q48.50 16.87 48.89 16.94L48.89 16.94L50.95 17.26L50.95 18.38ZM61.32 18.38L55.63 18.38L55.63 17.26L56.78 17.04Q57.17 16.97 57.29 16.74Q57.41 16.51 57.41 15.89L57.41 15.89L57.41 9.12Q57.41 8.26 57.26 7.98Q57.12 7.70 56.59 7.63L56.59 7.63L55.42 7.46L55.58 6.31L58.92 6.05L59.21 6.22L59.38 8.35L59.45 8.35Q59.88 7.61 60.53 7.06Q61.18 6.50 61.94 6.19Q62.71 5.88 63.50 5.88L63.50 5.88Q64.92 5.88 65.83 6.52Q66.74 7.15 67.10 8.40L67.10 8.40Q67.68 7.27 68.81 6.58Q69.94 5.88 71.18 5.88L71.18 5.88Q72.10 5.88 72.80 6.14Q73.51 6.41 73.99 6.94Q74.47 7.46 74.72 8.23Q74.98 9 74.98 9.98L74.98 9.98L74.98 16.08Q74.98 16.61 75.12 16.80Q75.26 16.99 75.72 17.06L75.72 17.06L76.85 17.26L76.85 18.38L71.16 18.38L71.16 17.28L72.02 17.09Q72.48 16.97 72.61 16.79Q72.74 16.61 72.74 16.08L72.74 16.08L72.74 10.68Q72.74 8.98 72.24 8.29Q71.74 7.61 70.49 7.61L70.49 7.61Q69.55 7.61 68.83 8.03Q68.11 8.45 67.72 9.19Q67.32 9.94 67.32 10.94L67.32 10.94L67.32 15.98Q67.32 16.54 67.43 16.73Q67.54 16.92 67.90 17.02L67.90 17.02L69 17.28L69 18.38L63.48 18.38L63.48 17.28L64.34 17.09Q64.80 16.97 64.93 16.79Q65.06 16.61 65.06 16.08L65.06 16.08L65.06 10.68Q65.06 8.98 64.57 8.29Q64.08 7.61 62.81 7.61L62.81 7.61Q61.39 7.61 60.52 8.53Q59.64 9.46 59.64 10.94L59.64 10.94L59.64 15.98Q59.64 16.54 59.76 16.73Q59.88 16.92 60.24 17.02L60.24 17.02L61.32 17.28L61.32 18.38ZM82.20 18.72L82.20 18.72Q80.69 18.72 79.76 17.83Q78.84 16.94 78.84 15.48L78.84 15.48Q78.84 14.16 79.50 13.34Q80.16 12.53 81.67 12.11Q83.18 11.69 85.73 11.57L85.73 11.57L85.73 9.94Q85.73 8.45 85.10 7.78Q84.48 7.10 83.14 7.10L83.14 7.10Q82.49 7.10 81.85 7.31Q81.22 7.51 80.93 7.82L80.93 7.82Q81.55 8.86 81.55 9.17L81.55 9.17Q81.55 9.62 81.18 9.94Q80.81 10.25 80.26 10.25L80.26 10.25Q79.61 10.25 79.25 9.92Q78.89 9.60 78.89 9L78.89 9Q78.89 8.16 79.52 7.45Q80.16 6.74 81.20 6.31Q82.25 5.88 83.47 5.88L83.47 5.88Q85.75 5.88 86.86 6.94Q87.96 7.99 87.96 10.20L87.96 10.20L87.96 15.98Q87.96 17.04 89.04 17.04L89.04 17.04Q89.30 17.04 89.57 16.99Q89.83 16.94 90.17 16.85L90.17 16.85L90.41 17.76Q89.98 18.17 89.35 18.44Q88.73 18.72 88.20 18.72L88.20 18.72Q87.17 18.72 86.60 18.18Q86.04 17.64 85.92 16.58L85.92 16.58Q84.58 18.72 82.20 18.72ZM83.11 17.06L83.11 17.06Q84.24 17.06 84.98 16.33Q85.73 15.60 85.73 14.52L85.73 14.52L85.73 12.82Q83.40 12.82 82.28 13.40Q81.17 13.99 81.17 15.22L81.17 15.22Q81.17 16.08 81.70 16.57Q82.22 17.06 83.11 17.06ZM103.03 16.44L101.42 16.44L101.42 11.76L97.18 11.76L97.18 10.25L101.42 10.25L101.42 5.88L103.03 5.88L103.03 10.25L107.45 10.25L107.45 11.76L103.03 11.76L103.03 16.44Z" transform="translate(0, 52)"></path></svg>